<svg xmlns="http://www.w3.org/2000/svg" width="800px" height="800px" viewBox="0 0 24 24" fill="none">
<path d="M21 21H7.8C6.11984 21 5.27976 21 4.63803 20.673C4.07354 20.3854 3.6146 19.9265 3.32698 19.362C3 18.7202 3 17.8802 3 16.2V3M14.4286 10L12.8153 8.26266C12.408 7.82396 12.2043 7.6046 11.9659 7.52324C11.7565 7.45174 11.5292 7.45174 11.3198 7.52324C11.0814 7.6046 10.8778 7.82396 10.4704 8.26266L7.42753 11.5396C7.26951 11.7098 7.1905 11.7948 7.13411 11.8925C7.0841 11.979 7.04735 12.0726 7.0251 12.1701C7 12.28 7 12.3961 7 12.6283V15.4C7 15.9601 7 16.2401 7.10899 16.454C7.20487 16.6422 7.35785 16.7951 7.54601 16.891C7.75992 17 8.03995 17 8.6 17H18.4C18.9601 17 19.2401 17 19.454 16.891C19.6422 16.7951 19.7951 16.6422 19.891 16.454C20 16.2401 20 15.9601 20 15.4V12.6283C20 12.3961 20 12.28 19.9749 12.1701C19.9526 12.0726 19.9159 11.979 19.8659 11.8925C19.8095 11.7948 19.7305 11.7098 19.5725 11.5396L18.1429 10C17.9623 9.80555 17.872 9.70833 17.7812 9.6458C17.4397 9.41088 16.9888 9.41088 16.6474 9.6458C16.5566 9.70833 16.4663 9.80555 16.2857 10C16.1052 10.1944 16.0149 10.2917 15.924 10.3542C15.5826 10.5891 15.1317 10.5891 14.7903 10.3542C14.6994 10.2917 14.6091 10.1944 14.4286 10Z" stroke="#ffffff" stroke-width="2" stroke-linecap="round" stroke-linejoin="round" fill="#ffffff"/>
</svg>