<svg xmlns="http://www.w3.org/2000/svg" width="800px" height="800px" viewBox="0 0 24 24" fill="none">
<path d="M19.9998 10V7.2C19.9998 6.0799 19.9998 5.51984 19.806 5.09202C19.6355 4.71569 19.3636 4.40973 19.0291 4.21799C18.6488 4 18.151 4 17.1553 4H6.8442C5.84855 4 5.35073 4 4.97044 4.21799C4.63593 4.40973 4.36396 4.71569 4.19352 5.09202C3.99976 5.51984 3.99976 6.0799 3.99976 7.2V10M6.33887 14H6.34887M3.50977 20C3.9216 18.8348 5.03284 18 6.33906 18C7.64528 18 8.75652 18.8348 9.16835 20M11.9989 14H12.0089M9.1698 20C9.58164 18.8348 10.6929 18 11.9991 18C13.3053 18 14.4166 18.8348 14.8284 20M17.6588 14H17.6688M14.8297 20C15.2415 18.8348 16.3528 18 17.659 18C18.9652 18 20.0765 18.8348 20.4883 20M7.33887 14C7.33887 14.5523 6.89115 15 6.33887 15C5.78658 15 5.33887 14.5523 5.33887 14C5.33887 13.4477 5.78658 13 6.33887 13C6.89115 13 7.33887 13.4477 7.33887 14ZM12.9989 14C12.9989 14.5523 12.5512 15 11.9989 15C11.4466 15 10.9989 14.5523 10.9989 14C10.9989 13.4477 11.4466 13 11.9989 13C12.5512 13 12.9989 13.4477 12.9989 14ZM18.6588 14C18.6588 14.5523 18.2111 15 17.6588 15C17.1065 15 16.6588 14.5523 16.6588 14C16.6588 13.4477 17.1065 13 17.6588 13C18.2111 13 18.6588 13.4477 18.6588 14Z" stroke="#ffffff" stroke-width="2" stroke-linecap="round" stroke-linejoin="round" fill="#ffffff"/>
</svg>