<?xml version="1.0" encoding="UTF-8" standalone="no"?>
<!-- Uploaded to: SVG Repo, www.svgrepo.com, Transformed by: SVG Repo Mixer Tools -->

<svg
   width="800px"
   height="800px"
   viewBox="0 0 48 48"
   fill="#ffffff"
   stroke="#ffffff"
   version="1.1"
   id="svg17"
   sodipodi:docname="network.svg"
   inkscape:version="1.2.1 (9c6d41e, 2022-07-14)"
   xmlns:inkscape="http://www.inkscape.org/namespaces/inkscape"
   xmlns:sodipodi="http://sodipodi.sourceforge.net/DTD/sodipodi-0.dtd"
   xmlns="http://www.w3.org/2000/svg"
   xmlns:svg="http://www.w3.org/2000/svg">
  <defs
     id="defs21" />
  <sodipodi:namedview
     id="namedview19"
     pagecolor="#ffffff"
     bordercolor="#000000"
     borderopacity="0.25"
     inkscape:showpageshadow="2"
     inkscape:pageopacity="0.0"
     inkscape:pagecheckerboard="0"
     inkscape:deskcolor="#d1d1d1"
     showgrid="false"
     inkscape:zoom="0.295"
     inkscape:cx="401.69492"
     inkscape:cy="400"
     inkscape:window-width="1309"
     inkscape:window-height="456"
     inkscape:window-x="0"
     inkscape:window-y="25"
     inkscape:window-maximized="0"
     inkscape:current-layer="svg17" />
  <g
     id="SVGRepo_bgCarrier"
     stroke-width="0"
     transform="translate(-8.7457627,-0.40677966)" />
  <path
     d="m 39.18644,18.40678 a 6.2,6.2 0 0 0 -5.7,4 h -8.5 a 9.9,9.9 0 0 0 -1.5,-3.3 l 3.5,-4.1 a 7.8,7.8 0 0 0 2.2,0.4 6,6 0 1 0 -6,-6.0000003 6.1,6.1 0 0 0 0.8,3.0000003 l -3.6,4.1 a 8.5,8.5 0 0 0 -4.2,-1.1 l -1.7,0.2 -1.2,-2.8 a 6,6 0 1 0 -4.1,1.6 h 0.4 l 1.3,2.8 a 8.9,8.9 0 0 0 0,14.4 l -1.3,2.8 h -0.4 a 6,6 0 1 0 4.1,1.6 l 1.2,-2.8 1.7,0.2 a 8.5,8.5 0 0 0 4.2,-1.1 l 3.6,4.1 a 6.1,6.1 0 0 0 -0.8,3 6,6 0 1 0 6,-6 7.8,7.8 0 0 0 -2.2,0.4 l -3.5,-4.1 a 9.9,9.9 0 0 0 1.5,-3.3 h 8.5 a 6.2,6.2 0 0 0 5.7,4 6,6 0 0 0 0,-12 z m -32,-10.0000003 a 2,2 0 1 1 2,2.0000003 2,2 0 0 1 -2,-2.0000003 z m 2,34.0000003 a 2,2 0 1 1 2,-2 2,2 0 0 1 -2,2 z m 20,-35.0000003 a 2,2 0 1 1 -2,2 2,2 0 0 1 2,-2 z m -18,17.0000003 a 5,5 0 1 1 5,5 5,5 0 0 1 -5,-5 z m 20,15 a 2,2 0 1 1 -2,-2 2,2 0 0 1 2,2 z m 8,-13 a 2,2 0 1 1 2,-2 2,2 0 0 1 -2,2 z"
     id="path12" />
</svg>
